<svg width="268" height="268" viewBox="0 0 268 268" fill="none" xmlns="http://www.w3.org/2000/svg">
<g filter="url(#filter0_d_6513_27407)">
<rect width="244" height="244" rx="80" fill="#9ED0D0"/>
<path d="M122 151.4C130.33 151.4 139.579 149.746 149.746 146.439C159.914 143.131 175.165 137.312 195.5 128.982V126.226C195.5 119.979 192.989 114.956 187.966 111.159C182.944 107.361 177.431 106.32 171.429 108.035C169.346 108.648 167.234 109.382 165.093 110.24C162.952 111.097 160.102 112.2 156.545 113.548C149.073 116.733 142.764 118.937 137.619 120.162C132.474 121.387 127.267 122 122 122C116.487 122 111.159 121.358 106.014 120.074C100.869 118.79 94.3763 116.554 86.5363 113.364C83.5963 112.139 81.0556 111.129 78.9143 110.336C76.773 109.542 74.7199 108.836 72.755 108.219C66.7525 106.259 61.2106 107.177 56.1293 110.975C51.048 114.772 48.5049 119.856 48.5 126.226V128.615C64.5475 135.965 78.635 141.6 90.7625 145.52C102.89 149.44 113.302 151.4 122 151.4ZM122 195.5C138.905 195.5 153.759 190.874 166.563 181.623C179.367 172.372 188.032 160.521 192.56 146.071C176.513 152.931 163.038 157.986 152.135 161.234C141.233 164.483 131.187 166.105 122 166.1C112.69 166.1 102.064 164.356 90.1231 160.867C78.1818 157.378 65.1649 152.385 51.0725 145.887C55.2375 160.955 63.6288 172.992 76.2463 181.998C88.8638 191.004 104.115 195.505 122 195.5ZM122 107.3C113.915 107.3 106.994 104.421 101.236 98.6637C95.4788 92.9062 92.6 85.985 92.6 77.9C92.6 69.815 95.4788 62.8937 101.236 57.1362C106.994 51.3787 113.915 48.5 122 48.5C130.085 48.5 137.006 51.3787 142.764 57.1362C148.521 62.8937 151.4 69.815 151.4 77.9C151.4 85.985 148.521 92.9062 142.764 98.6637C137.006 104.421 130.085 107.3 122 107.3Z" fill="#36B2AB"/>
</g>
<defs>
<filter id="filter0_d_6513_27407" x="0" y="0" width="268" height="268" filterUnits="userSpaceOnUse" color-interpolation-filters="sRGB">
<feFlood flood-opacity="0" result="BackgroundImageFix"/>
<feColorMatrix in="SourceAlpha" type="matrix" values="0 0 0 0 0 0 0 0 0 0 0 0 0 0 0 0 0 0 127 0" result="hardAlpha"/>
<feOffset dx="20" dy="20"/>
<feGaussianBlur stdDeviation="2"/>
<feComposite in2="hardAlpha" operator="out"/>
<feColorMatrix type="matrix" values="0 0 0 0 0.542019 0 0 0 0 0.840334 0 0 0 0 0.859375 0 0 0 0.25 0"/>
<feBlend mode="normal" in2="BackgroundImageFix" result="effect1_dropShadow_6513_27407"/>
<feBlend mode="normal" in="SourceGraphic" in2="effect1_dropShadow_6513_27407" result="shape"/>
</filter>
</defs>
</svg>
