<svg width="269" height="269" viewBox="0 0 269 269" fill="none" xmlns="http://www.w3.org/2000/svg">
<g filter="url(#filter0_d_6513_27406)">
<rect width="244.069" height="245" rx="80" fill="#9ED0D0" shape-rendering="crispEdges"/>
<mask id="mask0_6513_27406" style="mask-type:luminance" maskUnits="userSpaceOnUse" x="42" y="42" width="160" height="161">
<path d="M122.03 158.725C142.197 158.725 158.545 142.377 158.545 122.21C158.545 102.044 142.197 85.6953 122.03 85.6953C101.864 85.6953 85.5156 102.044 85.5156 122.21C85.5156 142.377 101.864 158.725 122.03 158.725Z" fill="white" stroke="white" stroke-width="12.8275"/>
<path d="M122.032 134.38C115.309 134.38 109.86 128.931 109.86 122.209C109.86 115.487 115.309 110.037 122.032 110.037C128.754 110.037 134.203 115.487 134.203 122.209C134.203 128.931 128.754 134.38 122.032 134.38Z" fill="black"/>
<path d="M61.1716 81.6373C61.1716 81.6373 91.6006 34.9795 144.344 53.2369C197.088 71.4943 195.059 124.238 195.059 124.238M182.887 162.781C182.887 162.781 158.544 207.41 103.772 193.21C49 179.01 49 122.209 49 122.209V187.124M195.059 57.2941V122.209" stroke="white" stroke-width="12.8275" stroke-linecap="round" stroke-linejoin="round"/>
</mask>
<g mask="url(#mask0_6513_27406)">
<path d="M24.6562 24.8359H219.402V219.581H24.6562V24.8359Z" fill="#36B2AB"/>
</g>
</g>
<defs>
<filter id="filter0_d_6513_27406" x="0" y="0" width="268.07" height="269" filterUnits="userSpaceOnUse" color-interpolation-filters="sRGB">
<feFlood flood-opacity="0" result="BackgroundImageFix"/>
<feColorMatrix in="SourceAlpha" type="matrix" values="0 0 0 0 0 0 0 0 0 0 0 0 0 0 0 0 0 0 127 0" result="hardAlpha"/>
<feOffset dx="20" dy="20"/>
<feGaussianBlur stdDeviation="2"/>
<feComposite in2="hardAlpha" operator="out"/>
<feColorMatrix type="matrix" values="0 0 0 0 0.542019 0 0 0 0 0.840334 0 0 0 0 0.859375 0 0 0 0.25 0"/>
<feBlend mode="normal" in2="BackgroundImageFix" result="effect1_dropShadow_6513_27406"/>
<feBlend mode="normal" in="SourceGraphic" in2="effect1_dropShadow_6513_27406" result="shape"/>
</filter>
</defs>
</svg>
