<svg width="158" height="158" viewBox="0 0 158 158" fill="none" xmlns="http://www.w3.org/2000/svg">
<path d="M19.75 78.9425C19.75 116.06 47.6565 134.072 65.1655 141.721C69.9151 143.795 72.2899 144.833 79 144.833V52.666L19.75 72.416V78.9425Z" fill="#0F423F"/>
<path d="M92.8345 141.721C110.343 134.072 138.25 116.06 138.25 78.9425V72.416L79 52.666V144.833C85.7101 144.833 88.0849 143.795 92.8345 141.721Z" fill="#36B2AB"/>
<path d="M58.1817 18.4637L54.4107 19.7546C34.6173 26.5299 24.7206 29.9176 22.2353 33.4585C19.75 36.9995 19.75 47.5249 19.75 68.5757V72.416L79 52.666V13.166C73.6584 13.166 68.4995 14.9319 58.1817 18.4637Z" fill="#36B2AB"/>
<path d="M103.589 19.7546L99.8183 18.4637C89.5005 14.9319 84.3416 13.166 79 13.166V52.666L138.25 72.416V68.5757C138.25 47.5249 138.25 36.9995 135.765 33.4585C133.279 29.9176 123.383 26.5299 103.589 19.7546Z" fill="#0F423F"/>
</svg>
