<svg xmlns="http://www.w3.org/2000/svg" width="120" height="24" viewbox="0 0 90 17" fill="none">
                <path d="M46.7734 5C54.5154 5 57.9992 2.33333 58.7734 1" stroke="url(#paint0_linear_6572_9408)" stroke-width="2" stroke-linecap="round"></path>
                <path d="M4.66193 15.0741C4.1158 15.0741 3.54982 14.9996 2.96397 14.8507C2.38806 14.7018 1.83697 14.4982 1.3107 14.24C0.794365 13.9719 0.357464 13.6691 0 13.3315C0.22838 13.0038 0.481584 12.6761 0.759611 12.3484C1.03764 12.0108 1.34546 11.6782 1.68306 11.3505C2.07031 11.7676 2.49728 12.1548 2.96397 12.5123C3.43066 12.8598 3.89735 13.1428 4.36404 13.3613C4.84066 13.5797 5.27756 13.6889 5.67475 13.6889C6.03221 13.6889 6.34996 13.5946 6.62798 13.4059C6.91594 13.2074 7.05992 12.9244 7.05992 12.557C7.05992 12.2094 6.92587 11.9016 6.65777 11.6335C6.38967 11.3555 6.03717 11.1023 5.60027 10.8739C5.1733 10.6356 4.71654 10.4023 4.22999 10.1739C3.80302 9.97528 3.38102 9.76676 2.96397 9.54831C2.54693 9.32986 2.16464 9.09155 1.81711 8.83338C1.4795 8.57522 1.20644 8.28726 0.997921 7.96951C0.79933 7.64184 0.700034 7.27444 0.700034 6.86733C0.700034 6.46022 0.804295 6.06304 1.01282 5.67578C1.23127 5.28853 1.53412 4.941 1.92137 4.63318C2.30862 4.31543 2.76538 4.06719 3.29165 3.88846C3.82785 3.6998 4.41369 3.60547 5.04918 3.60547C5.77404 3.60547 6.50386 3.72959 7.23865 3.97783C7.98337 4.22607 8.62879 4.58353 9.17492 5.05022C8.99618 5.38783 8.75291 5.72047 8.44509 6.04814C8.14721 6.37582 7.85428 6.65384 7.56633 6.88222C6.96062 6.30631 6.35988 5.82473 5.76411 5.43747C5.16834 5.04029 4.60732 4.8417 4.08105 4.8417C3.6938 4.8417 3.40088 4.94099 3.20228 5.13959C3.01362 5.32825 2.91929 5.5318 2.91929 5.75025C2.91929 5.98856 3.02852 6.20701 3.24697 6.40561C3.46542 6.6042 3.75337 6.79782 4.11084 6.98648C4.4683 7.17515 4.86052 7.36877 5.28749 7.56736C5.73432 7.77589 6.18612 7.9993 6.64288 8.23761C7.10957 8.47592 7.53654 8.74898 7.92379 9.0568C8.32097 9.35469 8.63872 9.69726 8.87703 10.0845C9.11534 10.4718 9.23449 10.9136 9.23449 11.4101C9.23449 11.9066 9.11037 12.3782 8.86213 12.8251C8.62383 13.262 8.29118 13.6492 7.86421 13.9868C7.44717 14.3244 6.96062 14.5925 6.40457 14.7911C5.85844 14.9798 5.27756 15.0741 4.66193 15.0741Z" fill="black"></path>
                <path d="M11.0866 15.0294C11.0767 14.8209 11.0668 14.4883 11.0568 14.0315C11.0568 13.5648 11.0519 13.0088 11.0419 12.3633C11.0419 11.7179 11.037 11.0179 11.0271 10.2632C11.0271 9.50859 11.0271 8.73409 11.0271 7.93972H9.40357L9.3142 6.56944H11.0122C11.0122 5.56656 11.0122 4.61828 11.0122 3.72462C11.3796 3.72462 11.8065 3.72959 12.2931 3.73952C12.7895 3.74945 13.2165 3.76434 13.574 3.7842C13.574 4.63814 13.574 5.56656 13.574 6.56944H15.2719L15.1826 7.93972H13.5591C13.5591 8.71423 13.5541 9.47881 13.5442 10.2335C13.5442 10.9782 13.5392 11.6683 13.5293 12.3038C13.5293 12.9393 13.5243 13.4903 13.5144 13.957C13.5144 14.4237 13.5094 14.7613 13.4995 14.9699C13.1619 14.9897 12.7895 15.0046 12.3824 15.0145C11.9753 15.0245 11.5434 15.0294 11.0866 15.0294Z" fill="black"></path>
                <path d="M18.7338 15.0741C17.8898 15.0741 17.1997 14.8706 16.6635 14.4634C16.1372 14.0464 15.8741 13.5052 15.8741 12.84C15.8741 12.2343 16.0926 11.6732 16.5295 11.1569C16.9763 10.6406 17.5919 10.2037 18.3764 9.8462C19.1608 9.47881 20.0594 9.2256 21.0722 9.08659C20.7148 8.21279 20.2233 7.77589 19.5977 7.77589C19.2204 7.77589 18.7338 7.91986 18.1381 8.20782C17.5423 8.49578 16.9366 8.8731 16.3209 9.33979L15.8741 7.85036C17.3536 7.00634 18.7537 6.58434 20.0743 6.58434C21.107 6.58434 21.9361 6.86733 22.5617 7.43332C23.1872 7.98937 23.644 8.88303 23.932 10.1143C24.2199 11.3356 24.3639 12.9542 24.3639 14.9699C24.1752 14.9798 23.8376 14.9897 23.3511 14.9996C22.8745 15.0195 22.3581 15.0294 21.8021 15.0294C21.8021 14.7117 21.7971 14.3989 21.7872 14.0911C20.7644 14.7464 19.7466 15.0741 18.7338 15.0741ZM18.3317 12.7357C18.3317 13.0435 18.4508 13.2868 18.6891 13.4655C18.9374 13.6443 19.2651 13.7336 19.6722 13.7336C20.3871 13.7336 21.0772 13.4258 21.7425 12.8102C21.6829 11.7576 21.5687 10.8689 21.3999 10.1441C21.0127 10.2235 20.6353 10.3526 20.2679 10.5313C19.9105 10.7101 19.5828 10.9236 19.2849 11.1718C18.997 11.4101 18.7636 11.6683 18.5849 11.9463C18.4161 12.2144 18.3317 12.4775 18.3317 12.7357Z" fill="black"></path>
                <path d="M25.7812 15.0294C25.7712 14.7117 25.7613 14.2748 25.7514 13.7187C25.7415 13.1527 25.7315 12.5024 25.7216 11.7676C25.7216 11.0229 25.7166 10.2235 25.7067 9.36958C25.7067 8.50571 25.7067 7.61701 25.7067 6.70349C25.9252 6.70349 26.1933 6.70846 26.511 6.71839C26.8287 6.71839 27.1465 6.72335 27.4642 6.73328C27.7919 6.74321 28.06 6.75314 28.2685 6.76307C28.2685 7.01131 28.2685 7.26451 28.2685 7.52268C29.1125 6.89712 29.9715 6.58434 30.8453 6.58434C31.6495 6.58434 32.2999 6.86733 32.7964 7.43332C33.2929 7.9993 33.6504 8.90289 33.8688 10.1441C34.0972 11.3853 34.2114 13.0137 34.2114 15.0294C33.983 15.0294 33.7099 15.0245 33.3922 15.0145C33.0744 15.0145 32.7617 15.0096 32.4538 14.9996C32.146 14.9897 31.8779 14.9798 31.6495 14.9699C31.6495 13.2123 31.5999 11.8073 31.5006 10.7548C31.4013 9.70222 31.2375 8.94261 31.0091 8.47592C30.7807 8.00923 30.4729 7.77589 30.0856 7.77589C29.7679 7.77589 29.4452 7.90993 29.1175 8.17803C28.7898 8.44613 28.5068 8.79863 28.2685 9.23553C28.2586 10.0795 28.2487 10.8789 28.2387 11.6335C28.2387 12.3882 28.2338 13.0584 28.2239 13.6443C28.2139 14.2202 28.204 14.662 28.1941 14.9699C27.8862 14.9798 27.5089 14.9897 27.0621 14.9996C26.6252 15.0195 26.1982 15.0294 25.7812 15.0294Z" fill="black"></path>
                <path d="M39.5415 15.0741C38.9953 15.0741 38.4293 14.9996 37.8435 14.8507C37.2676 14.7018 36.7165 14.4982 36.1902 14.24C35.6739 13.9719 35.237 13.6691 34.8795 13.3315C35.1079 13.0038 35.3611 12.6761 35.6391 12.3484C35.9172 12.0108 36.225 11.6782 36.5626 11.3505C36.9498 11.7676 37.3768 12.1548 37.8435 12.5123C38.3102 12.8598 38.7769 13.1428 39.2436 13.3613C39.7202 13.5797 40.1571 13.6889 40.5543 13.6889C40.9117 13.6889 41.2295 13.5946 41.5075 13.4059C41.7955 13.2074 41.9394 12.9244 41.9394 12.557C41.9394 12.2094 41.8054 11.9016 41.5373 11.6335C41.2692 11.3555 40.9167 11.1023 40.4798 10.8739C40.0528 10.6356 39.5961 10.4023 39.1095 10.1739C38.6826 9.97528 38.2605 9.76676 37.8435 9.54831C37.4265 9.32986 37.0442 9.09155 36.6966 8.83338C36.359 8.57522 36.086 8.28726 35.8774 7.96951C35.6789 7.64184 35.5796 7.27444 35.5796 6.86733C35.5796 6.46022 35.6838 6.06304 35.8923 5.67578C36.1108 5.28853 36.4136 4.941 36.8009 4.63318C37.1882 4.31543 37.6449 4.06719 38.1712 3.88846C38.7074 3.6998 39.2932 3.60547 39.9287 3.60547C40.6536 3.60547 41.3834 3.72959 42.1182 3.97783C42.8629 4.22607 43.5083 4.58353 44.0544 5.05022C43.8757 5.38783 43.6324 5.72047 43.3246 6.04814C43.0267 6.37582 42.7338 6.65384 42.4459 6.88222C41.8402 6.30631 41.2394 5.82473 40.6436 5.43747C40.0479 5.04029 39.4868 4.8417 38.9606 4.8417C38.5733 4.8417 38.2804 4.94099 38.0818 5.13959C37.8932 5.32825 37.7988 5.5318 37.7988 5.75025C37.7988 5.98856 37.908 6.20701 38.1265 6.40561C38.3449 6.6042 38.6329 6.79782 38.9904 6.98648C39.3478 7.17515 39.74 7.36877 40.167 7.56736C40.6138 7.77589 41.0656 7.9993 41.5224 8.23761C41.9891 8.47592 42.4161 8.74898 42.8033 9.0568C43.2005 9.35469 43.5182 9.69726 43.7566 10.0845C43.9949 10.4718 44.114 10.9136 44.114 11.4101C44.114 11.9066 43.9899 12.3782 43.7417 12.8251C43.5034 13.262 43.1707 13.6492 42.7437 13.9868C42.3267 14.3244 41.8402 14.5925 41.2841 14.7911C40.738 14.9798 40.1571 15.0741 39.5415 15.0741Z" fill="black"></path>
                <path d="M48.0966 15.0741C47.4711 15.0741 46.9051 14.8954 46.3987 14.5379C45.9022 14.1805 45.51 13.6889 45.222 13.0634C44.9341 12.4378 44.7901 11.7328 44.7901 10.9484C44.7901 10.1342 44.939 9.39937 45.2369 8.74402C45.5447 8.08867 45.9568 7.56736 46.4731 7.18011C46.9895 6.78293 47.5604 6.58434 48.186 6.58434C48.7718 6.58434 49.3875 6.75811 50.0329 7.10564C50.0428 6.94677 50.0478 6.81272 50.0478 6.70349C50.3854 6.70349 50.7826 6.70846 51.2393 6.71839C51.6961 6.72832 52.1032 6.74321 52.4607 6.76307C52.4706 7.0411 52.4756 7.47303 52.4756 8.05888C52.4855 8.63479 52.4954 9.30007 52.5054 10.0547C52.5153 10.8094 52.5202 11.5938 52.5202 12.408C52.5302 13.2123 52.5351 13.9868 52.5351 14.7315C52.5351 15.4763 52.5351 16.1266 52.5351 16.6827C52.3167 16.6926 52.0486 16.7026 51.7309 16.7125C51.4131 16.7224 51.0954 16.7274 50.7776 16.7274C50.4698 16.7373 50.2017 16.7423 49.9733 16.7423C49.9733 16.0969 49.9733 15.3323 49.9733 14.4486C49.3775 14.8656 48.752 15.0741 48.0966 15.0741ZM47.0391 10.4718C47.0391 11.1172 47.1136 11.6981 47.2625 12.2144C47.4214 12.7208 47.6299 13.123 47.8881 13.4208C48.1562 13.7088 48.4541 13.8528 48.7818 13.8528C49.2187 13.8528 49.6208 13.6095 49.9882 13.123C49.9882 12.3782 49.9882 11.6385 49.9882 10.9037C49.9981 10.159 50.0081 9.47881 50.018 8.86317C49.8492 8.52557 49.6307 8.26243 49.3626 8.07377C49.1045 7.87518 48.8265 7.77589 48.5286 7.77589C48.0619 7.77589 47.6945 8.01419 47.4264 8.49081C47.1682 8.9575 47.0391 9.61782 47.0391 10.4718Z" fill="black"></path>
                <path d="M57.0423 15.0741C54.828 15.0741 53.7209 13.0534 53.7209 9.01212C53.7209 8.33691 53.7507 7.61205 53.8102 6.83754C54.0485 6.81768 54.3713 6.80279 54.7784 6.79286C55.1954 6.78293 55.7266 6.77796 56.3721 6.77796C56.3125 7.77092 56.2827 8.65465 56.2827 9.42916C56.2827 10.9583 56.4019 12.0853 56.6402 12.8102C56.8884 13.5251 57.2657 13.8826 57.7721 13.8826C58.1097 13.8826 58.4473 13.7436 58.7849 13.4655C59.1325 13.1875 59.4304 12.8201 59.6786 12.3633C59.6687 11.5789 59.6587 10.7001 59.6488 9.72704C59.6488 8.74402 59.6488 7.73617 59.6488 6.70349C60.0559 6.70349 60.5028 6.70846 60.9893 6.71839C61.4858 6.72832 61.8929 6.74321 62.2106 6.76307C62.2106 7.56736 62.2057 8.38159 62.1958 9.20574C62.1958 10.0299 62.1908 10.8193 62.1809 11.5739C62.1809 12.3286 62.1759 13.0038 62.166 13.5996C62.156 14.1854 62.1461 14.6422 62.1362 14.9699C61.7489 14.9897 61.3468 15.0046 60.9297 15.0145C60.5127 15.0245 60.1105 15.0294 59.7233 15.0294C59.7134 14.7911 59.7034 14.4833 59.6935 14.106C58.8396 14.7514 57.9558 15.0741 57.0423 15.0741Z" fill="black"></path>
                <path d="M66.4132 15.0741C65.5692 15.0741 64.8791 14.8706 64.3429 14.4634C63.8166 14.0464 63.5535 13.5052 63.5535 12.84C63.5535 12.2343 63.7719 11.6732 64.2088 11.1569C64.6556 10.6406 65.2713 10.2037 66.0557 9.8462C66.8402 9.47881 67.7388 9.2256 68.7516 9.08659C68.3941 8.21279 67.9026 7.77589 67.2771 7.77589C66.8997 7.77589 66.4132 7.91986 65.8174 8.20782C65.2216 8.49578 64.6159 8.8731 64.0003 9.33979L63.5535 7.85036C65.033 7.00634 66.433 6.58434 67.7537 6.58434C68.7863 6.58434 69.6155 6.86733 70.241 7.43332C70.8666 7.98937 71.3233 8.88303 71.6113 10.1143C71.8993 11.3356 72.0432 12.9542 72.0432 14.9699C71.8546 14.9798 71.517 14.9897 71.0304 14.9996C70.5538 15.0195 70.0375 15.0294 69.4814 15.0294C69.4814 14.7117 69.4765 14.3989 69.4665 14.0911C68.4438 14.7464 67.426 15.0741 66.4132 15.0741ZM66.011 12.7357C66.011 13.0435 66.1302 13.2868 66.3685 13.4655C66.6167 13.6443 66.9444 13.7336 67.3515 13.7336C68.0665 13.7336 68.7566 13.4258 69.4218 12.8102C69.3623 11.7576 69.2481 10.8689 69.0793 10.1441C68.692 10.2235 68.3147 10.3526 67.9473 10.5313C67.5898 10.7101 67.2622 10.9236 66.9643 11.1718C66.6763 11.4101 66.443 11.6683 66.2642 11.9463C66.0954 12.2144 66.011 12.4775 66.011 12.7357Z" fill="black"></path>
                <path d="M75.8734 15.0294C75.5259 15.0294 75.1287 15.0195 74.6819 14.9996C74.245 14.9897 73.8379 14.9798 73.4605 14.9699C73.4506 14.672 73.4407 14.245 73.4307 13.6889C73.4208 13.1329 73.4109 12.4875 73.401 11.7527C73.401 11.008 73.396 10.2136 73.3861 9.36958C73.3861 8.51564 73.3861 7.6468 73.3861 6.76307C73.6045 6.75314 73.8726 6.74321 74.1904 6.73328C74.5081 6.72335 74.8258 6.71839 75.1436 6.71839C75.4613 6.70846 75.7294 6.70349 75.9479 6.70349C75.9479 6.99145 75.9479 7.27941 75.9479 7.56736C76.3351 7.25955 76.7323 7.02124 77.1394 6.85244C77.5565 6.6737 77.9586 6.58434 78.3459 6.58434C78.8523 6.58434 79.314 6.72335 79.731 7.00138C80.1481 7.26948 80.4857 7.63687 80.7439 8.10356C81.012 8.57025 81.1659 9.09652 81.2056 9.68236C80.8084 9.81145 80.4112 9.92564 80.014 10.0249C79.6169 10.1242 79.2395 10.2037 78.8821 10.2632C78.8821 9.81641 78.8225 9.40433 78.7033 9.02701C78.5941 8.64969 78.4452 8.34684 78.2565 8.11846C78.0678 7.89008 77.8593 7.77589 77.6309 7.77589C77.3628 7.77589 77.065 7.93972 76.7373 8.2674C76.4096 8.59507 76.1465 8.99722 75.9479 9.47384C75.938 10.7349 75.928 11.8619 75.9181 12.8549C75.9082 13.8379 75.8933 14.5627 75.8734 15.0294Z" fill="black"></path>
                <path d="M85.8926 15.0741C85.0884 15.0741 84.3635 14.8904 83.7181 14.523C83.0826 14.1457 82.5762 13.6393 82.1989 13.0038C81.8315 12.3584 81.6478 11.6286 81.6478 10.8143C81.6478 10.0001 81.8265 9.27525 82.184 8.63976C82.5514 8.00427 83.0478 7.50282 83.6734 7.13543C84.3089 6.76804 85.0288 6.58434 85.8331 6.58434C86.5877 6.58434 87.2629 6.75314 87.8587 7.09075C88.4644 7.41842 88.951 7.88015 89.3184 8.47592C89.6957 9.07169 89.9191 9.77173 89.9886 10.576L84.0755 11.6782C84.2642 12.3236 84.5621 12.8499 84.9692 13.257C85.3763 13.6542 85.8331 13.8528 86.3395 13.8528C86.8062 13.8528 87.2679 13.6939 87.7247 13.3762C88.1814 13.0485 88.5339 12.6314 88.7822 12.125L89.8397 13.0187C89.3531 13.674 88.7673 14.1805 88.0821 14.5379C87.397 14.8954 86.6672 15.0741 85.8926 15.0741ZM83.8819 10.2186C83.8819 10.2781 83.8819 10.3278 83.8819 10.3675L87.3523 9.89088C87.2828 9.25539 87.0792 8.74402 86.7416 8.35676C86.404 7.96951 85.9919 7.77589 85.5054 7.77589C84.999 7.77589 84.6018 7.99434 84.3139 8.43124C84.0259 8.85821 83.8819 9.45398 83.8819 10.2186Z" fill="black"></path>
                <defs>
                  <lineargradient id="paint0_linear_6572_9408" x1="56.7734" y1="-1.5" x2="52.7734" y2="5" gradientunits="userSpaceOnUse">
                    <stop stop-color="black"></stop>
                    <stop offset="1" stop-color="#032020"></stop>
                  </lineargradient>
                </defs>
              </svg>