<svg width="152" height="152" viewBox="0 0 152 152" fill="none" xmlns="http://www.w3.org/2000/svg">
<path d="M30.9766 60.8916C30.9766 58.3432 33.0263 56.2773 35.5549 56.2773H59.9725C62.5011 56.2773 64.5509 58.3432 64.5509 60.8916C64.5509 63.44 62.5011 65.5059 59.9725 65.5059H35.5549C33.0263 65.5059 30.9766 63.44 30.9766 60.8916Z" fill="#1C274C"/>
<path fill-rule="evenodd" clip-rule="evenodd" d="M134.191 63.3579C133.796 63.3337 133.367 63.3338 132.922 63.334L132.811 63.334H115.359C100.973 63.334 88.6641 74.3291 88.6641 88.6673C88.6641 103.006 100.973 114.001 115.359 114.001H132.811L132.922 114.001C133.367 114.001 133.796 114.001 134.191 113.977C140.034 113.619 145.202 109.179 145.636 102.977C145.665 102.57 145.664 102.132 145.664 101.726L145.664 101.615V75.7192L145.664 75.6089C145.664 75.2027 145.665 74.7643 145.636 74.3577C145.202 68.1561 140.034 63.7161 134.191 63.3579ZM113.811 95.4228C117.515 95.4228 120.517 92.3982 120.517 88.6673C120.517 84.9363 117.515 81.9117 113.811 81.9117C110.108 81.9117 107.105 84.9363 107.105 88.6673C107.105 92.3982 110.108 95.4228 113.811 95.4228Z" fill="#0F423F"/>
<path d="M133.88 63.3423C133.88 55.8651 133.608 47.8443 128.829 42.0943C128.367 41.5393 127.876 41.0003 127.353 40.4772C122.613 35.7376 116.603 33.6342 109.178 32.6359C101.963 31.6658 92.7439 31.6659 81.1048 31.666H67.7234C56.0843 31.6659 46.8653 31.6658 39.6503 32.6359C32.2249 33.6342 26.2149 35.7376 21.4753 40.4772C16.7356 45.2169 14.6322 51.2269 13.6339 58.6522C12.6639 65.8672 12.664 75.0862 12.6641 86.7253V87.44C12.664 99.0791 12.6639 108.298 13.6339 115.513C14.6322 122.939 16.7356 128.949 21.4753 133.688C26.2149 138.428 32.2249 140.531 39.6503 141.529C46.8652 142.5 56.0842 142.499 67.7232 142.499H81.1047C92.7437 142.499 101.963 142.5 109.178 141.529C116.603 140.531 122.613 138.428 127.353 133.688C128.648 132.393 129.748 131 130.683 129.507C133.536 124.95 133.88 119.366 133.88 113.99C133.575 114 133.253 113.999 132.922 113.999L115.359 113.999C100.973 113.999 88.6641 103.004 88.6641 88.666C88.6641 74.3278 100.973 63.3327 115.359 63.3327L132.922 63.3327C133.253 63.3326 133.575 63.3325 133.88 63.3423Z" fill="#36B2AB"/>
<path d="M63.9742 16.2894L50.6649 25.2854L39.6875 32.631C46.8971 31.6658 56.1048 31.6659 67.7243 31.666H81.1057C92.7448 31.6659 101.964 31.6658 109.179 32.6359C110.63 32.831 112.027 33.0683 113.372 33.3593L101.332 25.3327L87.9524 16.2894C80.8048 11.4582 71.1217 11.4582 63.9742 16.2894Z" fill="#0F423F"/>
</svg>
